STARTFONT 2.1
COMMENT This font was automatically resized by bdfresize-1.4
COMMENT   mag_x = 2/3, mag_y = 2/3, blackness = 3
COMMENT This font image is originally translated from Metafont ``dvng10''
COMMENT from devnagri package.
COMMENT DPI was ``147'', usermag ``1000'', blackness ``3''
COMMENT shrink was 1
FONT -Misc-Fixed-Medium-R-Normal--16-160-72-72-C-80-MuleIndian-1
SIZE 16 72 72
FONTBOUNDINGBOX 8 16 0 -3
STARTPROPERTIES 22
FOUNDRY "Misc"
FAMILY_NAME "Fixed"
WEIGHT_NAME "Medium"
SLANT "R"
SETWIDTH_NAME "Normal"
ADD_STYLE_NAME ""
PIXEL_SIZE 16
POINT_SIZE 160
RESOLUTION_X 72
RESOLUTION_Y 72
SPACING "C"
AVERAGE_WIDTH 80
CHARSET_REGISTRY "MuleIndian"
CHARSET_ENCODING "1"
STRIKEOUT_ASCENT 13
STRIKEOUT_DESCENT 3
X_HEIGHT 10
FACE_NAME "Indian"
COPYRIGHT "Public domain"
FONT_ASCENT 13
FONT_DESCENT 3
DEFAULT_CHAR 32
ENDPROPERTIES
CHARS 372
STARTCHAR c2121
ENCODING 8481
SWIDTH 334 0
DWIDTH 8 0
BBX 8 3 0 10
BITMAP
54
34
1c
ENDCHAR
STARTCHAR c2122
ENCODING 8482
SWIDTH 334 0
DWIDTH 8 0
BBX 8 2 0 10
BITMAP
03
03
ENDCHAR
STARTCHAR c2123
ENCODING 8483
SWIDTH 334 0
DWIDTH 8 0
BBX 8 6 0 1
BITMAP
10
18
00
00
18
10
ENDCHAR
STARTCHAR c2124
ENCODING 8484
SWIDTH 334 0
DWIDTH 8 0
BBX 8 16 0 -3
BITMAP
00
00
00
00
00
00
00
00
00
00
00
00
00
00
00
00
ENDCHAR
STARTCHAR c2125
ENCODING 8485
SWIDTH 334 0
DWIDTH 8 0
BBX 8 16 0 -3
BITMAP
00
00
00
00
00
00
00
00
00
00
00
00
00
00
00
00
ENDCHAR
STARTCHAR c2126
ENCODING 8486
SWIDTH 334 0
DWIDTH 8 0
BBX 8 10 0 -1
BITMAP
ff
ff
3c
7c
3c
1e
3e
3c
04
02
ENDCHAR
STARTCHAR c2127
ENCODING 8487
SWIDTH 334 0
DWIDTH 8 0
BBX 8 14 0 -1
BITMAP
0c
1e
08
fe
ff
3c
7c
60
3c
06
7e
3c
04
02
ENDCHAR
STARTCHAR c2128
ENCODING 8488
SWIDTH 334 0
DWIDTH 8 0
BBX 8 9 0 1
BITMAP
ff
7f
06
3c
7c
c4
46
3e
1c
ENDCHAR
STARTCHAR c2129
ENCODING 8489
SWIDTH 334 0
DWIDTH 8 0
BBX 8 16 0 -3
BITMAP
00
00
00
00
00
00
00
00
00
00
00
00
00
00
00
00
ENDCHAR
STARTCHAR c212a
ENCODING 8490
SWIDTH 334 0
DWIDTH 8 0
BBX 8 16 0 -3
BITMAP
00
00
00
00
00
00
00
00
00
00
00
00
00
00
00
00
ENDCHAR
STARTCHAR c212b
ENCODING 8491
SWIDTH 334 0
DWIDTH 8 0
BBX 8 16 0 -3
BITMAP
00
00
00
00
00
00
00
00
00
00
00
00
00
00
00
00
ENDCHAR
STARTCHAR c212c
ENCODING 8492
SWIDTH 334 0
DWIDTH 8 0
BBX 8 16 0 -3
BITMAP
00
00
00
00
00
00
00
00
00
00
00
00
00
00
00
00
ENDCHAR
STARTCHAR c212d
ENCODING 8493
SWIDTH 334 0
DWIDTH 8 0
BBX 8 16 0 -3
BITMAP
00
00
00
00
00
00
00
00
00
00
00
00
00
00
00
00
ENDCHAR
STARTCHAR c212e
ENCODING 8494
SWIDTH 334 0
DWIDTH 8 0
BBX 8 16 0 -3
BITMAP
00
00
00
00
00
00
00
00
00
00
00
00
00
00
00
00
ENDCHAR
STARTCHAR c212f
ENCODING 8495
SWIDTH 334 0
DWIDTH 8 0
BBX 8 16 0 -3
BITMAP
00
00
00
00
00
00
00
00
00
00
00
00
00
00
00
00
ENDCHAR
STARTCHAR c2130
ENCODING 8496
SWIDTH 334 0
DWIDTH 8 0
BBX 8 16 0 -3
BITMAP
00
00
00
00
00
00
00
00
00
00
00
00
00
00
00
00
ENDCHAR
STARTCHAR c2131
ENCODING 8497
SWIDTH 334 0
DWIDTH 8 0
BBX 8 16 0 -3
BITMAP
00
00
00
00
00
00
00
00
00
00
00
00
00
00
00
00
ENDCHAR
STARTCHAR c2132
ENCODING 8498
SWIDTH 334 0
DWIDTH 8 0
BBX 8 16 0 -3
BITMAP
00
00
00
00
00
00
00
00
00
00
00
00
00
00
00
00
ENDCHAR
STARTCHAR c2133
ENCODING 8499
SWIDTH 334 0
DWIDTH 8 0
BBX 8 10 0 0
BITMAP
ff
ff
f8
ff
df
db
7b
1b
1b
08
ENDCHAR
STARTCHAR c2134
ENCODING 8500
SWIDTH 334 0
DWIDTH 8 0
BBX 8 16 0 -3
BITMAP
00
00
00
00
00
00
00
00
00
00
00
00
00
00
00
00
ENDCHAR
STARTCHAR c2135
ENCODING 8501
SWIDTH 334 0
DWIDTH 8 0
BBX 8 10 0 0
BITMAP
ff
ff
23
33
73
73
73
03
03
03
ENDCHAR
STARTCHAR c2136
ENCODING 8502
SWIDTH 334 0
DWIDTH 8 0
BBX 8 16 0 -3
BITMAP
00
00
00
00
00
00
00
00
00
00
00
00
00
00
00
00
ENDCHAR
STARTCHAR c2137
ENCODING 8503
SWIDTH 334 0
DWIDTH 8 0
BBX 8 16 0 -3
BITMAP
00
00
00
00
00
00
00
00
00
00
00
00
00
00
00
00
ENDCHAR
STARTCHAR c2138
ENCODING 8504
SWIDTH 334 0
DWIDTH 8 0
BBX 8 16 0 -3
BITMAP
00
00
00
00
00
00
00
00
00
00
00
00
00
00
00
00
ENDCHAR
STARTCHAR c2139
ENCODING 8505
SWIDTH 334 0
DWIDTH 8 0
BBX 8 16 0 -3
BITMAP
00
00
00
00
00
00
00
00
00
00
00
00
00
00
00
00
ENDCHAR
STARTCHAR c213a
ENCODING 8506
SWIDTH 334 0
DWIDTH 8 0
BBX 8 16 0 -3
BITMAP
00
00
00
00
00
00
00
00
00
00
00
00
00
00
00
00
ENDCHAR
STARTCHAR c213b
ENCODING 8507
SWIDTH 334 0
DWIDTH 8 0
BBX 8 16 0 -3
BITMAP
00
00
00
00
00
00
00
00
00
00
00
00
00
00
00
00
ENDCHAR
STARTCHAR c213c
ENCODING 8508
SWIDTH 334 0
DWIDTH 8 0
BBX 8 16 0 -3
BITMAP
00
00
00
00
00
00
00
00
00
00
00
00
00
00
00
00
ENDCHAR
STARTCHAR c213d
ENCODING 8509
SWIDTH 334 0
DWIDTH 8 0
BBX 8 9 0 1
BITMAP
ff
ff
0c
7c
70
c0
40
7f
3c
ENDCHAR
STARTCHAR c213e
ENCODING 8510
SWIDTH 334 0
DWIDTH 8 0
BBX 8 9 0 1
BITMAP
ff
ff
0c
7c
72
c3
43
7f
3e
ENDCHAR
STARTCHAR c213f
ENCODING 8511
SWIDTH 334 0
DWIDTH 8 0
BBX 8 8 0 1
BITMAP
ff
ff
3e
3c
1c
ce
7e
3c
ENDCHAR
STARTCHAR c2140
ENCODING 8512
SWIDTH 334 0
DWIDTH 8 0
BBX 8 9 0 1
BITMAP
ff
ff
3c
7c
c0
cc
5a
3f
1e
ENDCHAR
STARTCHAR c2141
ENCODING 8513
SWIDTH 334 0
DWIDTH 8 0
BBX 8 16 0 -3
BITMAP
00
00
00
00
00
00
00
00
00
00
00
00
00
00
00
00
ENDCHAR
STARTCHAR c2142
ENCODING 8514
SWIDTH 334 0
DWIDTH 8 0
BBX 8 10 0 0
BITMAP
ff
ff
06
7e
c6
c6
46
66
26
12
ENDCHAR
STARTCHAR c2143
ENCODING 8515
SWIDTH 334 0
DWIDTH 8 0
BBX 8 10 0 0
BITMAP
6f
f7
73
73
e3
47
3f
03
03
03
ENDCHAR
STARTCHAR c2144
ENCODING 8516
SWIDTH 334 0
DWIDTH 8 0
BBX 8 9 0 1
BITMAP
ff
ff
3e
7c
60
6c
3e
1e
02
ENDCHAR
STARTCHAR c2145
ENCODING 8517
SWIDTH 334 0
DWIDTH 8 0
BBX 8 10 0 0
BITMAP
4f
c7
43
3b
63
6f
3f
03
03
03
ENDCHAR
STARTCHAR c2146
ENCODING 8518
SWIDTH 334 0
DWIDTH 8 0
BBX 8 10 0 0
BITMAP
ff
ff
06
3e
7e
66
06
06
06
02
ENDCHAR
STARTCHAR c2147
ENCODING 8519
SWIDTH 334 0
DWIDTH 8 0
BBX 8 10 0 -1
BITMAP
ff
ff
06
7e
7e
26
06
06
36
30
ENDCHAR
STARTCHAR c2148
ENCODING 8520
SWIDTH 334 0
DWIDTH 8 0
BBX 8 10 0 0
BITMAP
ff
ff
66
66
26
1e
0e
06
06
02
ENDCHAR
STARTCHAR c2149
ENCODING 8521
SWIDTH 334 0
DWIDTH 8 0
BBX 8 16 0 -3
BITMAP
00
00
00
00
00
00
00
00
00
00
00
00
00
00
00
00
ENDCHAR
STARTCHAR c214a
ENCODING 8522
SWIDTH 334 0
DWIDTH 8 0
BBX 8 10 0 0
BITMAP
ff
ff
3e
7e
d6
5e
3e
3e
06
02
ENDCHAR
STARTCHAR c214b
ENCODING 8523
SWIDTH 334 0
DWIDTH 8 0
BBX 8 10 0 0
BITMAP
cf
67
23
33
7f
7f
33
03
03
03
ENDCHAR
STARTCHAR c214c
ENCODING 8524
SWIDTH 334 0
DWIDTH 8 0
BBX 8 10 0 0
BITMAP
ff
ff
63
63
ff
ff
e3
03
03
03
ENDCHAR
STARTCHAR c214d
ENCODING 8525
SWIDTH 334 0
DWIDTH 8 0
BBX 8 10 0 0
BITMAP
ff
ff
33
73
e3
47
3f
03
03
03
ENDCHAR
STARTCHAR c214e
ENCODING 8526
SWIDTH 334 0
DWIDTH 8 0
BBX 8 12 0 -2
BITMAP
ff
ff
33
73
63
7f
3f
03
03
02
08
08
ENDCHAR
STARTCHAR c214f
ENCODING 8527
SWIDTH 334 0
DWIDTH 8 0
BBX 8 10 0 0
BITMAP
ff
ff
30
70
70
30
30
10
0c
06
ENDCHAR
STARTCHAR c2150
ENCODING 8528
SWIDTH 334 0
DWIDTH 8 0
BBX 8 12 0 -2
BITMAP
ff
ff
30
70
70
30
30
10
0c
06
10
10
ENDCHAR
STARTCHAR c2151
ENCODING 8529
SWIDTH 334 0
DWIDTH 8 0
BBX 8 16 0 -3
BITMAP
00
00
00
00
00
00
00
00
00
00
00
00
00
00
00
00
ENDCHAR
STARTCHAR c2152
ENCODING 8530
SWIDTH 334 0
DWIDTH 8 0
BBX 8 16 0 -3
BITMAP
00
00
00
00
00
00
00
00
00
00
00
00
00
00
00
00
ENDCHAR
STARTCHAR c2153
ENCODING 8531
SWIDTH 334 0
DWIDTH 8 0
BBX 8 16 0 -3
BITMAP
00
00
00
00
00
00
00
00
00
00
00
00
00
00
00
00
ENDCHAR
STARTCHAR c2154
ENCODING 8532
SWIDTH 334 0
DWIDTH 8 0
BBX 8 10 0 0
BITMAP
ff
ff
3e
7e
c6
46
3e
3e
06
02
ENDCHAR
STARTCHAR c2155
ENCODING 8533
SWIDTH 334 0
DWIDTH 8 0
BBX 8 16 0 -3
BITMAP
00
00
00
00
00
00
00
00
00
00
00
00
00
00
00
00
ENDCHAR
STARTCHAR c2156
ENCODING 8534
SWIDTH 334 0
DWIDTH 8 0
BBX 8 10 0 0
BITMAP
ff
ff
76
7e
2e
1e
0e
06
06
02
ENDCHAR
STARTCHAR c2157
ENCODING 8535
SWIDTH 334 0
DWIDTH 8 0
BBX 8 10 0 0
BITMAP
ff
ff
63
e3
ff
df
43
63
23
13
ENDCHAR
STARTCHAR c2158
ENCODING 8536
SWIDTH 334 0
DWIDTH 8 0
BBX 8 12 0 -2
BITMAP
ff
ff
7c
fc
40
7c
7e
c3
4e
30
1c
06
ENDCHAR
STARTCHAR c2159
ENCODING 8537
SWIDTH 334 0
DWIDTH 8 0
BBX 8 16 0 -3
BITMAP
00
00
00
00
00
00
00
00
00
00
00
00
00
00
00
00
ENDCHAR
STARTCHAR c215a
ENCODING 8538
SWIDTH 334 0
DWIDTH 8 0
BBX 8 10 0 0
BITMAP
ff
7f
18
18
18
18
18
18
18
08
ENDCHAR
STARTCHAR c215b
ENCODING 8539
SWIDTH 334 0
DWIDTH 8 0
BBX 8 13 0 0
BITMAP
06
0d
0c
ff
7f
0c
0c
0c
0c
0c
0c
0c
0c
ENDCHAR
STARTCHAR c215c
ENCODING 8540
SWIDTH 334 0
DWIDTH 8 0
BBX 8 13 0 0
BITMAP
e0
30
10
fe
ff
18
18
18
18
18
18
18
18
ENDCHAR
STARTCHAR c215d
ENCODING 8541
SWIDTH 334 0
DWIDTH 8 0
BBX 8 4 0 -3
BITMAP
6e
3f
1f
0f
ENDCHAR
STARTCHAR c215e
ENCODING 8542
SWIDTH 334 0
DWIDTH 8 0
BBX 8 4 0 -3
BITMAP
38
7c
76
32
ENDCHAR
STARTCHAR c215f
ENCODING 8543
SWIDTH 334 0
DWIDTH 8 0
BBX 8 4 0 -3
BITMAP
3c
3c
3c
1e
ENDCHAR
STARTCHAR c2160
ENCODING 8544
SWIDTH 334 0
DWIDTH 8 0
BBX 8 4 0 9
BITMAP
80
60
18
04
ENDCHAR
STARTCHAR c2161
ENCODING 8545
SWIDTH 334 0
DWIDTH 8 0
BBX 8 4 0 9
BITMAP
e0
38
0c
04
ENDCHAR
STARTCHAR c2162
ENCODING 8546
SWIDTH 334 0
DWIDTH 8 0
BBX 8 4 0 9
BITMAP
10
e8
3c
0c
ENDCHAR
STARTCHAR c2163
ENCODING 8547
SWIDTH 334 0
DWIDTH 8 0
BBX 8 3 0 10
BITMAP
48
28
18
ENDCHAR
STARTCHAR c2164
ENCODING 8548
SWIDTH 334 0
DWIDTH 8 0
BBX 8 13 0 0
BITMAP
c0
e0
30
fe
ff
18
18
18
18
18
18
18
18
ENDCHAR
STARTCHAR c2165
ENCODING 8549
SWIDTH 334 0
DWIDTH 8 0
BBX 8 13 0 0
BITMAP
c0
20
30
fe
ff
18
18
18
18
18
18
18
18
ENDCHAR
STARTCHAR c2166
ENCODING 8550
SWIDTH 334 0
DWIDTH 8 0
BBX 8 13 0 0
BITMAP
a0
50
30
fe
ff
18
18
18
18
18
18
18
18
ENDCHAR
STARTCHAR c2167
ENCODING 8551
SWIDTH 334 0
DWIDTH 8 0
BBX 8 13 0 0
BITMAP
48
28
18
fe
ff
18
18
18
18
18
18
18
18
ENDCHAR
STARTCHAR c2168
ENCODING 8552
SWIDTH 334 0
DWIDTH 8 0
BBX 8 3 0 -3
BITMAP
18
1c
02
ENDCHAR
STARTCHAR c2169
ENCODING 8553
SWIDTH 334 0
DWIDTH 8 0
BBX 8 2 0 -3
BITMAP
10
10
ENDCHAR
STARTCHAR c216a
ENCODING 8554
SWIDTH 334 0
DWIDTH 8 0
BBX 8 10 0 0
BITMAP
10
18
18
18
18
18
18
18
18
08
ENDCHAR
STARTCHAR c216b
ENCODING 8555
SWIDTH 334 0
DWIDTH 8 0
BBX 8 16 0 -3
BITMAP
00
00
00
00
00
00
00
00
00
00
00
00
00
00
00
00
ENDCHAR
STARTCHAR c216c
ENCODING 8556
SWIDTH 334 0
DWIDTH 8 0
BBX 8 16 0 -3
BITMAP
00
00
00
00
00
00
00
00
00
00
00
00
00
00
00
00
ENDCHAR
STARTCHAR c216d
ENCODING 8557
SWIDTH 334 0
DWIDTH 8 0
BBX 8 16 0 -3
BITMAP
00
00
00
00
00
00
00
00
00
00
00
00
00
00
00
00
ENDCHAR
STARTCHAR c216e
ENCODING 8558
SWIDTH 334 0
DWIDTH 8 0
BBX 8 16 0 -3
BITMAP
00
00
00
00
00
00
00
00
00
00
00
00
00
00
00
00
ENDCHAR
STARTCHAR c216f
ENCODING 8559
SWIDTH 334 0
DWIDTH 8 0
BBX 8 16 0 -3
BITMAP
00
00
00
00
00
00
00
00
00
00
00
00
00
00
00
00
ENDCHAR
STARTCHAR c2170
ENCODING 8560
SWIDTH 334 0
DWIDTH 8 0
BBX 8 16 0 -3
BITMAP
00
00
00
00
00
00
00
00
00
00
00
00
00
00
00
00
ENDCHAR
STARTCHAR c2171
ENCODING 8561
SWIDTH 334 0
DWIDTH 8 0
BBX 8 6 0 2
BITMAP
38
7c
66
66
3e
1c
ENDCHAR
STARTCHAR c2172
ENCODING 8562
SWIDTH 334 0
DWIDTH 8 0
BBX 8 12 0 -2
BITMAP
30
78
6c
6c
3c
18
70
60
20
10
08
0c
ENDCHAR
STARTCHAR c2173
ENCODING 8563
SWIDTH 334 0
DWIDTH 8 0
BBX 8 10 0 -1
BITMAP
7c
3e
03
07
7e
3c
08
0c
04
02
ENDCHAR
STARTCHAR c2174
ENCODING 8564
SWIDTH 334 0
DWIDTH 8 0
BBX 8 10 0 -1
BITMAP
78
3c
3c
3c
04
6e
7c
38
0c
04
ENDCHAR
STARTCHAR c2175
ENCODING 8565
SWIDTH 334 0
DWIDTH 8 0
BBX 8 8 0 1
BITMAP
83
47
3c
38
78
68
7c
38
ENDCHAR
STARTCHAR c2176
ENCODING 8566
SWIDTH 334 0
DWIDTH 8 0
BBX 8 10 0 -1
BITMAP
cc
cc
4c
7c
3c
1c
38
78
64
02
ENDCHAR
STARTCHAR c2177
ENCODING 8567
SWIDTH 334 0
DWIDTH 8 0
BBX 8 11 0 -1
BITMAP
38
78
40
38
3c
60
64
3e
1c
06
02
ENDCHAR
STARTCHAR c2178
ENCODING 8568
SWIDTH 334 0
DWIDTH 8 0
BBX 8 9 0 1
BITMAP
80
dc
de
f3
d3
4f
63
3e
1c
ENDCHAR
STARTCHAR c2179
ENCODING 8569
SWIDTH 334 0
DWIDTH 8 0
BBX 8 8 0 0
BITMAP
fe
7e
e0
c0
cc
7e
3b
02
ENDCHAR
STARTCHAR c217a
ENCODING 8570
SWIDTH 334 0
DWIDTH 8 0
BBX 8 11 0 -1
BITMAP
70
f8
4c
78
30
30
10
08
04
06
06
ENDCHAR
STARTCHAR c217b
ENCODING 8571
SWIDTH 334 0
DWIDTH 8 0
BBX 8 16 0 -3
BITMAP
00
00
00
00
00
00
00
00
00
00
00
00
00
00
00
00
ENDCHAR
STARTCHAR c217c
ENCODING 8572
SWIDTH 334 0
DWIDTH 8 0
BBX 8 16 0 -3
BITMAP
00
00
00
00
00
00
00
00
00
00
00
00
00
00
00
00
ENDCHAR
STARTCHAR c217d
ENCODING 8573
SWIDTH 334 0
DWIDTH 8 0
BBX 8 16 0 -3
BITMAP
00
00
00
00
00
00
00
00
00
00
00
00
00
00
00
00
ENDCHAR
STARTCHAR c217e
ENCODING 8574
SWIDTH 334 0
DWIDTH 8 0
BBX 8 16 0 -3
BITMAP
00
00
00
00
00
00
00
00
00
00
00
00
00
00
00
00
ENDCHAR
STARTCHAR c2221
ENCODING 8737
SWIDTH 334 0
DWIDTH 8 0
BBX 8 16 0 -3
BITMAP
00
00
00
00
00
00
00
00
00
00
00
00
00
00
00
00
ENDCHAR
STARTCHAR c2222
ENCODING 8738
SWIDTH 334 0
DWIDTH 8 0
BBX 8 16 0 -3
BITMAP
00
00
00
00
00
00
00
00
00
00
00
00
00
00
00
00
ENDCHAR
STARTCHAR c2223
ENCODING 8739
SWIDTH 334 0
DWIDTH 8 0
BBX 8 16 0 -3
BITMAP
00
00
00
00
00
00
00
00
00
00
00
00
00
00
00
00
ENDCHAR
STARTCHAR c2224
ENCODING 8740
SWIDTH 334 0
DWIDTH 8 0
BBX 8 10 0 0
BITMAP
ff
ff
23
33
73
73
77
0f
1b
33
ENDCHAR
STARTCHAR c2225
ENCODING 8741
SWIDTH 334 0
DWIDTH 8 0
BBX 8 10 0 0
BITMAP
ff
ff
76
7e
0e
0e
7e
36
06
02
ENDCHAR
STARTCHAR c2226
ENCODING 8742
SWIDTH 334 0
DWIDTH 8 0
BBX 8 10 0 0
BITMAP
ff
ff
66
66
26
1e
1e
3e
66
02
ENDCHAR
STARTCHAR c2227
ENCODING 8743
SWIDTH 334 0
DWIDTH 8 0
BBX 8 16 0 -3
BITMAP
00
00
00
00
00
00
00
00
00
00
00
00
00
00
00
00
ENDCHAR
STARTCHAR c2228
ENCODING 8744
SWIDTH 334 0
DWIDTH 8 0
BBX 8 16 0 -3
BITMAP
00
00
00
00
00
00
00
00
00
00
00
00
00
00
00
00
ENDCHAR
STARTCHAR c2229
ENCODING 8745
SWIDTH 334 0
DWIDTH 8 0
BBX 8 16 0 -3
BITMAP
00
00
00
00
00
00
00
00
00
00
00
00
00
00
00
00
ENDCHAR
STARTCHAR c222a
ENCODING 8746
SWIDTH 334 0
DWIDTH 8 0
BBX 8 16 0 -3
BITMAP
00
00
00
00
00
00
00
00
00
00
00
00
00
00
00
00
ENDCHAR
STARTCHAR c222b
ENCODING 8747
SWIDTH 334 0
DWIDTH 8 0
BBX 8 16 0 -3
BITMAP
00
00
00
00
00
00
00
00
00
00
00
00
00
00
00
00
ENDCHAR
STARTCHAR c222c
ENCODING 8748
SWIDTH 334 0
DWIDTH 8 0
BBX 8 10 0 0
BITMAP
ff
ff
30
7c
72
33
36
10
08
04
ENDCHAR
STARTCHAR c222d
ENCODING 8749
SWIDTH 334 0
DWIDTH 8 0
BBX 8 16 0 -3
BITMAP
00
00
00
00
00
00
00
00
00
00
00
00
00
00
00
00
ENDCHAR
STARTCHAR c222e
ENCODING 8750
SWIDTH 334 0
DWIDTH 8 0
BBX 8 10 0 -1
BITMAP
ff
ff
3c
7e
73
37
16
08
24
20
ENDCHAR
STARTCHAR c222f
ENCODING 8751
SWIDTH 334 0
DWIDTH 8 0
BBX 8 16 0 -3
BITMAP
00
00
00
00
00
00
00
00
00
00
00
00
00
00
00
00
ENDCHAR
STARTCHAR c2230
ENCODING 8752
SWIDTH 334 0
DWIDTH 8 0
BBX 8 16 0 -3
BITMAP
00
00
00
00
00
00
00
00
00
00
00
00
00
00
00
00
ENDCHAR
STARTCHAR c2231
ENCODING 8753
SWIDTH 334 0
DWIDTH 8 0
BBX 8 16 0 -3
BITMAP
00
00
00
00
00
00
00
00
00
00
00
00
00
00
00
00
ENDCHAR
STARTCHAR c2232
ENCODING 8754
SWIDTH 334 0
DWIDTH 8 0
BBX 8 16 0 -3
BITMAP
00
00
00
00
00
00
00
00
00
00
00
00
00
00
00
00
ENDCHAR
STARTCHAR c2233
ENCODING 8755
SWIDTH 334 0
DWIDTH 8 0
BBX 8 10 0 0
BITMAP
ff
ff
f8
fe
d9
d8
78
18
18
08
ENDCHAR
STARTCHAR c2234
ENCODING 8756
SWIDTH 334 0
DWIDTH 8 0
BBX 8 10 0 0
BITMAP
ff
ff
70
fe
f3
d3
4f
20
10
08
ENDCHAR
STARTCHAR c2235
ENCODING 8757
SWIDTH 334 0
DWIDTH 8 0
BBX 8 7 0 3
BITMAP
ff
ff
0c
0c
1c
1c
1c
ENDCHAR
STARTCHAR c2236
ENCODING 8758
SWIDTH 334 0
DWIDTH 8 0
BBX 8 7 0 3
BITMAP
ff
ff
40
78
62
7e
3c
ENDCHAR
STARTCHAR c2237
ENCODING 8759
SWIDTH 334 0
DWIDTH 8 0
BBX 8 16 0 -3
BITMAP
00
00
00
00
00
00
00
00
00
00
00
00
00
00
00
00
ENDCHAR
STARTCHAR c2238
ENCODING 8760
SWIDTH 334 0
DWIDTH 8 0
BBX 8 7 0 3
BITMAP
ff
ff
00
7e
30
3f
1f
ENDCHAR
STARTCHAR c2239
ENCODING 8761
SWIDTH 334 0
DWIDTH 8 0
BBX 8 16 0 -3
BITMAP
00
00
00
00
00
00
00
00
00
00
00
00
00
00
00
00
ENDCHAR
STARTCHAR c223a
ENCODING 8762
SWIDTH 334 0
DWIDTH 8 0
BBX 8 8 0 1
BITMAP
ff
ff
1e
9f
c8
cc
7c
38
ENDCHAR
STARTCHAR c223b
ENCODING 8763
SWIDTH 334 0
DWIDTH 8 0
BBX 8 10 0 -1
BITMAP
ff
ff
f8
f0
7f
3f
f8
f0
08
0c
ENDCHAR
STARTCHAR c223c
ENCODING 8764
SWIDTH 334 0
DWIDTH 8 0
BBX 8 8 0 1
BITMAP
ff
ff
60
30
1f
df
78
30
ENDCHAR
STARTCHAR c223d
ENCODING 8765
SWIDTH 334 0
DWIDTH 8 0
BBX 8 16 0 -3
BITMAP
00
00
00
00
00
00
00
00
00
00
00
00
00
00
00
00
ENDCHAR
STARTCHAR c223e
ENCODING 8766
SWIDTH 334 0
DWIDTH 8 0
BBX 8 16 0 -3
BITMAP
00
00
00
00
00
00
00
00
00
00
00
00
00
00
00
00
ENDCHAR
STARTCHAR c223f
ENCODING 8767
SWIDTH 334 0
DWIDTH 8 0
BBX 8 16 0 -3
BITMAP
00
00
00
00
00
00
00
00
00
00
00
00
00
00
00
00
ENDCHAR
STARTCHAR c2240
ENCODING 8768
SWIDTH 334 0
DWIDTH 8 0
BBX 8 16 0 -3
BITMAP
00
00
00
00
00
00
00
00
00
00
00
00
00
00
00
00
ENDCHAR
STARTCHAR c2241
ENCODING 8769
SWIDTH 334 0
DWIDTH 8 0
BBX 8 7 0 3
BITMAP
ff
ff
3c
3c
3c
3c
1c
ENDCHAR
STARTCHAR c2242
ENCODING 8770
SWIDTH 334 0
DWIDTH 8 0
BBX 8 10 0 0
BITMAP
ff
ff
00
3f
30
30
30
10
10
08
ENDCHAR
STARTCHAR c2243
ENCODING 8771
SWIDTH 334 0
DWIDTH 8 0
BBX 8 7 0 3
BITMAP
67
f3
70
72
62
7e
3c
ENDCHAR
STARTCHAR c2244
ENCODING 8772
SWIDTH 334 0
DWIDTH 8 0
BBX 8 16 0 -3
BITMAP
00
00
00
00
00
00
00
00
00
00
00
00
00
00
00
00
ENDCHAR
STARTCHAR c2245
ENCODING 8773
SWIDTH 334 0
DWIDTH 8 0
BBX 8 7 0 3
BITMAP
47
c3
40
78
62
7e
3c
ENDCHAR
STARTCHAR c2246
ENCODING 8774
SWIDTH 334 0
DWIDTH 8 0
BBX 8 6 0 3
BITMAP
ff
ff
00
3e
7e
30
ENDCHAR
STARTCHAR c2247
ENCODING 8775
SWIDTH 334 0
DWIDTH 8 0
BBX 8 10 0 -1
BITMAP
ff
ff
00
3e
7e
30
00
00
10
10
ENDCHAR
STARTCHAR c2248
ENCODING 8776
SWIDTH 334 0
DWIDTH 8 0
BBX 8 6 0 3
BITMAP
ff
ff
60
20
3c
1c
ENDCHAR
STARTCHAR c2249
ENCODING 8777
SWIDTH 334 0
DWIDTH 8 0
BBX 8 10 0 0
BITMAP
ff
ff
cc
cf
cd
7c
3c
0c
0c
0c
ENDCHAR
STARTCHAR c224a
ENCODING 8778
SWIDTH 334 0
DWIDTH 8 0
BBX 8 7 0 3
BITMAP
ff
ff
00
7c
76
7e
3c
ENDCHAR
STARTCHAR c224b
ENCODING 8779
SWIDTH 334 0
DWIDTH 8 0
BBX 8 7 0 3
BITMAP
47
23
30
30
7f
7f
30
ENDCHAR
STARTCHAR c224c
ENCODING 8780
SWIDTH 334 0
DWIDTH 8 0
BBX 8 7 0 3
BITMAP
ff
ff
30
30
7f
ff
70
ENDCHAR
STARTCHAR c224d
ENCODING 8781
SWIDTH 334 0
DWIDTH 8 0
BBX 8 7 0 3
BITMAP
ff
ff
30
72
62
7e
3c
ENDCHAR
STARTCHAR c224e
ENCODING 8782
SWIDTH 334 0
DWIDTH 8 0
BBX 8 12 0 -2
BITMAP
ff
ff
30
70
62
7e
3c
00
00
00
08
08
ENDCHAR
STARTCHAR c224f
ENCODING 8783
SWIDTH 334 0
DWIDTH 8 0
BBX 8 16 0 -3
BITMAP
00
00
00
00
00
00
00
00
00
00
00
00
00
00
00
00
ENDCHAR
STARTCHAR c2250
ENCODING 8784
SWIDTH 334 0
DWIDTH 8 0
BBX 8 16 0 -3
BITMAP
00
00
00
00
00
00
00
00
00
00
00
00
00
00
00
00
ENDCHAR
STARTCHAR c2251
ENCODING 8785
SWIDTH 334 0
DWIDTH 8 0
BBX 8 10 0 0
BITMAP
ff
ff
00
f7
cc
cc
c0
40
40
20
ENDCHAR
STARTCHAR c2252
ENCODING 8786
SWIDTH 334 0
DWIDTH 8 0
BBX 8 16 0 -3
BITMAP
00
00
00
00
00
00
00
00
00
00
00
00
00
00
00
00
ENDCHAR
STARTCHAR c2253
ENCODING 8787
SWIDTH 334 0
DWIDTH 8 0
BBX 8 16 0 -3
BITMAP
00
00
00
00
00
00
00
00
00
00
00
00
00
00
00
00
ENDCHAR
STARTCHAR c2254
ENCODING 8788
SWIDTH 334 0
DWIDTH 8 0
BBX 8 7 0 3
BITMAP
ff
ff
00
7c
66
7e
3c
ENDCHAR
STARTCHAR c2255
ENCODING 8789
SWIDTH 334 0
DWIDTH 8 0
BBX 8 10 0 0
BITMAP
ff
ff
32
13
0f
0e
7c
3c
04
02
ENDCHAR
STARTCHAR c2256
ENCODING 8790
SWIDTH 334 0
DWIDTH 8 0
BBX 8 6 0 3
BITMAP
ff
ff
38
3c
1e
0e
ENDCHAR
STARTCHAR c2257
ENCODING 8791
SWIDTH 334 0
DWIDTH 8 0
BBX 8 10 0 0
BITMAP
ff
ff
30
f2
ff
7e
20
20
10
08
ENDCHAR
STARTCHAR c2258
ENCODING 8792
SWIDTH 334 0
DWIDTH 8 0
BBX 8 16 0 -3
BITMAP
00
00
00
00
00
00
00
00
00
00
00
00
00
00
00
00
ENDCHAR
STARTCHAR c2259
ENCODING 8793
SWIDTH 334 0
DWIDTH 8 0
BBX 8 16 0 -3
BITMAP
00
00
00
00
00
00
00
00
00
00
00
00
00
00
00
00
ENDCHAR
STARTCHAR c225a
ENCODING 8794
SWIDTH 334 0
DWIDTH 8 0
BBX 8 16 0 -3
BITMAP
00
00
00
00
00
00
00
00
00
00
00
00
00
00
00
00
ENDCHAR
STARTCHAR c225b
ENCODING 8795
SWIDTH 334 0
DWIDTH 8 0
BBX 8 16 0 -3
BITMAP
00
00
00
00
00
00
00
00
00
00
00
00
00
00
00
00
ENDCHAR
STARTCHAR c225c
ENCODING 8796
SWIDTH 334 0
DWIDTH 8 0
BBX 8 16 0 -3
BITMAP
00
00
00
00
00
00
00
00
00
00
00
00
00
00
00
00
ENDCHAR
STARTCHAR c225d
ENCODING 8797
SWIDTH 334 0
DWIDTH 8 0
BBX 8 10 0 0
BITMAP
ff
ff
46
66
36
36
7e
3e
06
02
ENDCHAR
STARTCHAR c225e
ENCODING 8798
SWIDTH 334 0
DWIDTH 8 0
BBX 8 16 0 -3
BITMAP
00
00
00
00
00
00
00
00
00
00
00
00
00
00
00
00
ENDCHAR
STARTCHAR c225f
ENCODING 8799
SWIDTH 334 0
DWIDTH 8 0
BBX 8 16 0 -3
BITMAP
00
00
00
00
00
00
00
00
00
00
00
00
00
00
00
00
ENDCHAR
STARTCHAR c2260
ENCODING 8800
SWIDTH 334 0
DWIDTH 8 0
BBX 8 8 0 2
BITMAP
ff
ff
60
60
e0
e3
e6
04
ENDCHAR
STARTCHAR c2261
ENCODING 8801
SWIDTH 334 0
DWIDTH 8 0
BBX 8 10 0 0
BITMAP
ff
ff
70
78
66
3e
1c
3e
7e
30
ENDCHAR
STARTCHAR c2262
ENCODING 8802
SWIDTH 334 0
DWIDTH 8 0
BBX 8 10 0 0
BITMAP
ff
ff
70
3f
7f
73
7b
33
1e
0c
ENDCHAR
STARTCHAR c2263
ENCODING 8803
SWIDTH 334 0
DWIDTH 8 0
BBX 8 10 0 0
BITMAP
ff
ff
00
ff
60
60
20
20
10
08
ENDCHAR
STARTCHAR c2264
ENCODING 8804
SWIDTH 334 0
DWIDTH 8 0
BBX 8 8 0 2
BITMAP
ff
ff
38
7c
02
0e
3e
30
ENDCHAR
STARTCHAR c2265
ENCODING 8805
SWIDTH 334 0
DWIDTH 8 0
BBX 8 10 0 -1
BITMAP
40
c0
70
78
66
3e
1c
3e
7e
30
ENDCHAR
STARTCHAR c2266
ENCODING 8806
SWIDTH 334 0
DWIDTH 8 0
BBX 8 10 0 0
BITMAP
20
60
20
3c
30
37
1f
3c
78
40
ENDCHAR
STARTCHAR c2267
ENCODING 8807
SWIDTH 334 0
DWIDTH 8 0
BBX 8 10 0 0
BITMAP
ff
7f
60
30
1e
3e
70
20
30
18
ENDCHAR
STARTCHAR c2268
ENCODING 8808
SWIDTH 334 0
DWIDTH 8 0
BBX 8 10 0 0
BITMAP
ff
ff
58
fc
ee
03
3f
1b
1f
0e
ENDCHAR
STARTCHAR c2269
ENCODING 8809
SWIDTH 334 0
DWIDTH 8 0
BBX 8 8 0 1
BITMAP
ff
ff
78
7c
e7
0f
1c
10
ENDCHAR
STARTCHAR c226a
ENCODING 8810
SWIDTH 334 0
DWIDTH 8 0
BBX 8 8 0 1
BITMAP
ff
ff
78
fc
ef
1f
1f
0e
ENDCHAR
STARTCHAR c226b
ENCODING 8811
SWIDTH 334 0
DWIDTH 8 0
BBX 8 9 0 1
BITMAP
ff
7f
70
7c
26
0e
18
38
18
ENDCHAR
STARTCHAR c226c
ENCODING 8812
SWIDTH 334 0
DWIDTH 8 0
BBX 8 10 0 0
BITMAP
77
fb
d8
7b
7f
dc
d8
cc
7c
0c
ENDCHAR
STARTCHAR c226d
ENCODING 8813
SWIDTH 334 0
DWIDTH 8 0
BBX 8 11 0 -1
BITMAP
ff
7f
00
78
64
22
10
58
78
70
08
ENDCHAR
STARTCHAR c226e
ENCODING 8814
SWIDTH 334 0
DWIDTH 8 0
BBX 8 16 0 -3
BITMAP
00
00
00
00
00
00
00
00
00
00
00
00
00
00
00
00
ENDCHAR
STARTCHAR c226f
ENCODING 8815
SWIDTH 334 0
DWIDTH 8 0
BBX 8 16 0 -3
BITMAP
00
00
00
00
00
00
00
00
00
00
00
00
00
00
00
00
ENDCHAR
STARTCHAR c2270
ENCODING 8816
SWIDTH 334 0
DWIDTH 8 0
BBX 8 4 0 9
BITMAP
0e
0e
0c
06
ENDCHAR
STARTCHAR c2271
ENCODING 8817
SWIDTH 334 0
DWIDTH 8 0
BBX 8 5 0 0
BITMAP
04
0c
3c
30
20
ENDCHAR
STARTCHAR c2272
ENCODING 8818
SWIDTH 334 0
DWIDTH 8 0
BBX 8 4 0 -2
BITMAP
0c
1e
32
30
ENDCHAR
STARTCHAR c2273
ENCODING 8819
SWIDTH 334 0
DWIDTH 8 0
BBX 8 10 0 0
BITMAP
ff
7f
f8
fe
d9
d8
78
18
58
48
ENDCHAR
STARTCHAR c2274
ENCODING 8820
SWIDTH 334 0
DWIDTH 8 0
BBX 8 10 0 0
BITMAP
ff
7f
60
fe
f3
d3
4f
60
2c
3c
ENDCHAR
STARTCHAR c2275
ENCODING 8821
SWIDTH 334 0
DWIDTH 8 0
BBX 8 10 0 0
BITMAP
ff
7f
18
18
38
38
38
00
04
04
ENDCHAR
STARTCHAR c2276
ENCODING 8822
SWIDTH 334 0
DWIDTH 8 0
BBX 8 16 0 -3
BITMAP
00
00
00
00
00
00
00
00
00
00
00
00
00
00
00
00
ENDCHAR
STARTCHAR c2277
ENCODING 8823
SWIDTH 334 0
DWIDTH 8 0
BBX 8 16 0 -3
BITMAP
00
00
00
00
00
00
00
00
00
00
00
00
00
00
00
00
ENDCHAR
STARTCHAR c2278
ENCODING 8824
SWIDTH 334 0
DWIDTH 8 0
BBX 8 16 0 -3
BITMAP
00
00
00
00
00
00
00
00
00
00
00
00
00
00
00
00
ENDCHAR
STARTCHAR c2279
ENCODING 8825
SWIDTH 334 0
DWIDTH 8 0
BBX 8 10 0 0
BITMAP
ff
ff
cc
ce
cf
7d
3c
0c
2c
2c
ENDCHAR
STARTCHAR c227a
ENCODING 8826
SWIDTH 334 0
DWIDTH 8 0
BBX 8 10 0 0
BITMAP
ff
ff
00
df
cc
4c
2c
3c
1e
02
ENDCHAR
STARTCHAR c227b
ENCODING 8827
SWIDTH 334 0
DWIDTH 8 0
BBX 8 16 0 -3
BITMAP
00
00
00
00
00
00
00
00
00
00
00
00
00
00
00
00
ENDCHAR
STARTCHAR c227c
ENCODING 8828
SWIDTH 334 0
DWIDTH 8 0
BBX 8 16 0 -3
BITMAP
00
00
00
00
00
00
00
00
00
00
00
00
00
00
00
00
ENDCHAR
STARTCHAR c227d
ENCODING 8829
SWIDTH 334 0
DWIDTH 8 0
BBX 8 16 0 -3
BITMAP
00
00
00
00
00
00
00
00
00
00
00
00
00
00
00
00
ENDCHAR
STARTCHAR c227e
ENCODING 8830
SWIDTH 334 0
DWIDTH 8 0
BBX 8 16 0 -3
BITMAP
00
00
00
00
00
00
00
00
00
00
00
00
00
00
00
00
ENDCHAR
STARTCHAR c2321
ENCODING 8993
SWIDTH 334 0
DWIDTH 8 0
BBX 8 16 0 -3
BITMAP
00
00
00
00
00
00
00
00
00
00
00
00
00
00
00
00
ENDCHAR
STARTCHAR c2322
ENCODING 8994
SWIDTH 334 0
DWIDTH 8 0
BBX 8 16 0 -3
BITMAP
00
00
00
00
00
00
00
00
00
00
00
00
00
00
00
00
ENDCHAR
STARTCHAR c2323
ENCODING 8995
SWIDTH 334 0
DWIDTH 8 0
BBX 8 16 0 -3
BITMAP
00
00
00
00
00
00
00
00
00
00
00
00
00
00
00
00
ENDCHAR
STARTCHAR c2324
ENCODING 8996
SWIDTH 334 0
DWIDTH 8 0
BBX 8 16 0 -3
BITMAP
00
00
00
00
00
00
00
00
00
00
00
00
00
00
00
00
ENDCHAR
STARTCHAR c2325
ENCODING 8997
SWIDTH 334 0
DWIDTH 8 0
BBX 8 16 0 -3
BITMAP
00
00
00
00
00
00
00
00
00
00
00
00
00
00
00
00
ENDCHAR
STARTCHAR c2326
ENCODING 8998
SWIDTH 334 0
DWIDTH 8 0
BBX 8 16 0 -3
BITMAP
00
00
00
00
00
00
00
00
00
00
00
00
00
00
00
00
ENDCHAR
STARTCHAR c2327
ENCODING 8999
SWIDTH 334 0
DWIDTH 8 0
BBX 8 16 0 -3
BITMAP
00
00
00
00
00
00
00
00
00
00
00
00
00
00
00
00
ENDCHAR
STARTCHAR c2328
ENCODING 9000
SWIDTH 334 0
DWIDTH 8 0
BBX 8 16 0 -3
BITMAP
00
00
00
00
00
00
00
00
00
00
00
00
00
00
00
00
ENDCHAR
STARTCHAR c2329
ENCODING 9001
SWIDTH 334 0
DWIDTH 8 0
BBX 8 16 0 -3
BITMAP
00
00
00
00
00
00
00
00
00
00
00
00
00
00
00
00
ENDCHAR
STARTCHAR c232a
ENCODING 9002
SWIDTH 334 0
DWIDTH 8 0
BBX 8 16 0 -3
BITMAP
00
00
00
00
00
00
00
00
00
00
00
00
00
00
00
00
ENDCHAR
STARTCHAR c232b
ENCODING 9003
SWIDTH 334 0
DWIDTH 8 0
BBX 8 16 0 -3
BITMAP
00
00
00
00
00
00
00
00
00
00
00
00
00
00
00
00
ENDCHAR
STARTCHAR c232c
ENCODING 9004
SWIDTH 334 0
DWIDTH 8 0
BBX 8 16 0 -3
BITMAP
00
00
00
00
00
00
00
00
00
00
00
00
00
00
00
00
ENDCHAR
STARTCHAR c232d
ENCODING 9005
SWIDTH 334 0
DWIDTH 8 0
BBX 8 16 0 -3
BITMAP
00
00
00
00
00
00
00
00
00
00
00
00
00
00
00
00
ENDCHAR
STARTCHAR c232e
ENCODING 9006
SWIDTH 334 0
DWIDTH 8 0
BBX 8 16 0 -3
BITMAP
00
00
00
00
00
00
00
00
00
00
00
00
00
00
00
00
ENDCHAR
STARTCHAR c232f
ENCODING 9007
SWIDTH 334 0
DWIDTH 8 0
BBX 8 16 0 -3
BITMAP
00
00
00
00
00
00
00
00
00
00
00
00
00
00
00
00
ENDCHAR
STARTCHAR c2330
ENCODING 9008
SWIDTH 334 0
DWIDTH 8 0
BBX 8 16 0 -3
BITMAP
00
00
00
00
00
00
00
00
00
00
00
00
00
00
00
00
ENDCHAR
STARTCHAR c2331
ENCODING 9009
SWIDTH 334 0
DWIDTH 8 0
BBX 8 16 0 -3
BITMAP
00
00
00
00
00
00
00
00
00
00
00
00
00
00
00
00
ENDCHAR
STARTCHAR c2332
ENCODING 9010
SWIDTH 334 0
DWIDTH 8 0
BBX 8 16 0 -3
BITMAP
00
00
00
00
00
00
00
00
00
00
00
00
00
00
00
00
ENDCHAR
STARTCHAR c2333
ENCODING 9011
SWIDTH 334 0
DWIDTH 8 0
BBX 8 16 0 -3
BITMAP
00
00
00
00
00
00
00
00
00
00
00
00
00
00
00
00
ENDCHAR
STARTCHAR c2334
ENCODING 9012
SWIDTH 334 0
DWIDTH 8 0
BBX 8 16 0 -3
BITMAP
00
00
00
00
00
00
00
00
00
00
00
00
00
00
00
00
ENDCHAR
STARTCHAR c2335
ENCODING 9013
SWIDTH 334 0
DWIDTH 8 0
BBX 8 10 0 0
BITMAP
ff
ff
23
33
73
73
73
03
0b
0b
ENDCHAR
STARTCHAR c2336
ENCODING 9014
SWIDTH 334 0
DWIDTH 8 0
BBX 8 16 0 -3
BITMAP
00
00
00
00
00
00
00
00
00
00
00
00
00
00
00
00
ENDCHAR
STARTCHAR c2337
ENCODING 9015
SWIDTH 334 0
DWIDTH 8 0
BBX 8 16 0 -3
BITMAP
00
00
00
00
00
00
00
00
00
00
00
00
00
00
00
00
ENDCHAR
STARTCHAR c2338
ENCODING 9016
SWIDTH 334 0
DWIDTH 8 0
BBX 8 16 0 -3
BITMAP
00
00
00
00
00
00
00
00
00
00
00
00
00
00
00
00
ENDCHAR
STARTCHAR c2339
ENCODING 9017
SWIDTH 334 0
DWIDTH 8 0
BBX 8 16 0 -3
BITMAP
00
00
00
00
00
00
00
00
00
00
00
00
00
00
00
00
ENDCHAR
STARTCHAR c233a
ENCODING 9018
SWIDTH 334 0
DWIDTH 8 0
BBX 8 16 0 -3
BITMAP
00
00
00
00
00
00
00
00
00
00
00
00
00
00
00
00
ENDCHAR
STARTCHAR c233b
ENCODING 9019
SWIDTH 334 0
DWIDTH 8 0
BBX 8 16 0 -3
BITMAP
00
00
00
00
00
00
00
00
00
00
00
00
00
00
00
00
ENDCHAR
STARTCHAR c233c
ENCODING 9020
SWIDTH 334 0
DWIDTH 8 0
BBX 8 16 0 -3
BITMAP
00
00
00
00
00
00
00
00
00
00
00
00
00
00
00
00
ENDCHAR
STARTCHAR c233d
ENCODING 9021
SWIDTH 334 0
DWIDTH 8 0
BBX 8 16 0 -3
BITMAP
00
00
00
00
00
00
00
00
00
00
00
00
00
00
00
00
ENDCHAR
STARTCHAR c233e
ENCODING 9022
SWIDTH 334 0
DWIDTH 8 0
BBX 8 16 0 -3
BITMAP
00
00
00
00
00
00
00
00
00
00
00
00
00
00
00
00
ENDCHAR
STARTCHAR c233f
ENCODING 9023
SWIDTH 334 0
DWIDTH 8 0
BBX 8 11 0 -1
BITMAP
ff
ff
3e
3c
3c
de
46
3e
00
0c
0c
ENDCHAR
STARTCHAR c2340
ENCODING 9024
SWIDTH 334 0
DWIDTH 8 0
BBX 8 12 0 -2
BITMAP
ff
ff
3c
7c
c0
cc
5e
33
1e
00
08
08
ENDCHAR
STARTCHAR c2341
ENCODING 9025
SWIDTH 334 0
DWIDTH 8 0
BBX 8 16 0 -3
BITMAP
00
00
00
00
00
00
00
00
00
00
00
00
00
00
00
00
ENDCHAR
STARTCHAR c2342
ENCODING 9026
SWIDTH 334 0
DWIDTH 8 0
BBX 8 16 0 -3
BITMAP
00
00
00
00
00
00
00
00
00
00
00
00
00
00
00
00
ENDCHAR
STARTCHAR c2343
ENCODING 9027
SWIDTH 334 0
DWIDTH 8 0
BBX 8 16 0 -3
BITMAP
00
00
00
00
00
00
00
00
00
00
00
00
00
00
00
00
ENDCHAR
STARTCHAR c2344
ENCODING 9028
SWIDTH 334 0
DWIDTH 8 0
BBX 8 16 0 -3
BITMAP
00
00
00
00
00
00
00
00
00
00
00
00
00
00
00
00
ENDCHAR
STARTCHAR c2345
ENCODING 9029
SWIDTH 334 0
DWIDTH 8 0
BBX 8 16 0 -3
BITMAP
00
00
00
00
00
00
00
00
00
00
00
00
00
00
00
00
ENDCHAR
STARTCHAR c2346
ENCODING 9030
SWIDTH 334 0
DWIDTH 8 0
BBX 8 16 0 -3
BITMAP
00
00
00
00
00
00
00
00
00
00
00
00
00
00
00
00
ENDCHAR
STARTCHAR c2347
ENCODING 9031
SWIDTH 334 0
DWIDTH 8 0
BBX 8 16 0 -3
BITMAP
00
00
00
00
00
00
00
00
00
00
00
00
00
00
00
00
ENDCHAR
STARTCHAR c2348
ENCODING 9032
SWIDTH 334 0
DWIDTH 8 0
BBX 8 16 0 -3
BITMAP
00
00
00
00
00
00
00
00
00
00
00
00
00
00
00
00
ENDCHAR
STARTCHAR c2349
ENCODING 9033
SWIDTH 334 0
DWIDTH 8 0
BBX 8 16 0 -3
BITMAP
00
00
00
00
00
00
00
00
00
00
00
00
00
00
00
00
ENDCHAR
STARTCHAR c234a
ENCODING 9034
SWIDTH 334 0
DWIDTH 8 0
BBX 8 10 0 0
BITMAP
3e
7e
60
60
30
d8
cc
4c
7c
38
ENDCHAR
STARTCHAR c234b
ENCODING 9035
SWIDTH 334 0
DWIDTH 8 0
BBX 8 6 0 -3
BITMAP
38
78
64
3c
3e
3e
ENDCHAR
STARTCHAR c234c
ENCODING 9036
SWIDTH 334 0
DWIDTH 8 0
BBX 8 5 0 -3
BITMAP
7c
fe
d6
4e
07
ENDCHAR
STARTCHAR c234d
ENCODING 9037
SWIDTH 334 0
DWIDTH 8 0
BBX 8 6 0 -3
BITMAP
7c
fe
f6
4c
0f
0f
ENDCHAR
STARTCHAR c234e
ENCODING 9038
SWIDTH 334 0
DWIDTH 8 0
BBX 8 16 0 -3
BITMAP
00
00
00
00
00
00
00
00
00
00
00
00
00
00
00
00
ENDCHAR
STARTCHAR c234f
ENCODING 9039
SWIDTH 334 0
DWIDTH 8 0
BBX 8 16 0 -3
BITMAP
00
00
00
00
00
00
00
00
00
00
00
00
00
00
00
00
ENDCHAR
STARTCHAR c2350
ENCODING 9040
SWIDTH 334 0
DWIDTH 8 0
BBX 8 16 0 -3
BITMAP
00
00
00
00
00
00
00
00
00
00
00
00
00
00
00
00
ENDCHAR
STARTCHAR c2351
ENCODING 9041
SWIDTH 334 0
DWIDTH 8 0
BBX 8 16 0 -3
BITMAP
00
00
00
00
00
00
00
00
00
00
00
00
00
00
00
00
ENDCHAR
STARTCHAR c2352
ENCODING 9042
SWIDTH 334 0
DWIDTH 8 0
BBX 8 12 0 -2
BITMAP
ff
ff
7c
fc
40
7c
7e
ce
5c
2e
1e
0c
ENDCHAR
STARTCHAR c2353
ENCODING 9043
SWIDTH 334 0
DWIDTH 8 0
BBX 8 16 0 -3
BITMAP
00
00
00
00
00
00
00
00
00
00
00
00
00
00
00
00
ENDCHAR
STARTCHAR c2354
ENCODING 9044
SWIDTH 334 0
DWIDTH 8 0
BBX 8 16 0 -3
BITMAP
00
00
00
00
00
00
00
00
00
00
00
00
00
00
00
00
ENDCHAR
STARTCHAR c2355
ENCODING 9045
SWIDTH 334 0
DWIDTH 8 0
BBX 8 16 0 -3
BITMAP
00
00
00
00
00
00
00
00
00
00
00
00
00
00
00
00
ENDCHAR
STARTCHAR c2356
ENCODING 9046
SWIDTH 334 0
DWIDTH 8 0
BBX 8 16 0 -3
BITMAP
00
00
00
00
00
00
00
00
00
00
00
00
00
00
00
00
ENDCHAR
STARTCHAR c2357
ENCODING 9047
SWIDTH 334 0
DWIDTH 8 0
BBX 8 16 0 -3
BITMAP
00
00
00
00
00
00
00
00
00
00
00
00
00
00
00
00
ENDCHAR
STARTCHAR c2358
ENCODING 9048
SWIDTH 334 0
DWIDTH 8 0
BBX 8 16 0 -3
BITMAP
00
00
00
00
00
00
00
00
00
00
00
00
00
00
00
00
ENDCHAR
STARTCHAR c2359
ENCODING 9049
SWIDTH 334 0
DWIDTH 8 0
BBX 8 16 0 -3
BITMAP
00
00
00
00
00
00
00
00
00
00
00
00
00
00
00
00
ENDCHAR
STARTCHAR c235a
ENCODING 9050
SWIDTH 334 0
DWIDTH 8 0
BBX 8 16 0 -3
BITMAP
00
00
00
00
00
00
00
00
00
00
00
00
00
00
00
00
ENDCHAR
STARTCHAR c235b
ENCODING 9051
SWIDTH 334 0
DWIDTH 8 0
BBX 8 16 0 -3
BITMAP
00
00
00
00
00
00
00
00
00
00
00
00
00
00
00
00
ENDCHAR
STARTCHAR c235c
ENCODING 9052
SWIDTH 334 0
DWIDTH 8 0
BBX 8 16 0 -3
BITMAP
00
00
00
00
00
00
00
00
00
00
00
00
00
00
00
00
ENDCHAR
STARTCHAR c235d
ENCODING 9053
SWIDTH 334 0
DWIDTH 8 0
BBX 8 16 0 -3
BITMAP
00
00
00
00
00
00
00
00
00
00
00
00
00
00
00
00
ENDCHAR
STARTCHAR c235e
ENCODING 9054
SWIDTH 334 0
DWIDTH 8 0
BBX 8 16 0 -3
BITMAP
00
00
00
00
00
00
00
00
00
00
00
00
00
00
00
00
ENDCHAR
STARTCHAR c235f
ENCODING 9055
SWIDTH 334 0
DWIDTH 8 0
BBX 8 16 0 -3
BITMAP
00
00
00
00
00
00
00
00
00
00
00
00
00
00
00
00
ENDCHAR
STARTCHAR c2360
ENCODING 9056
SWIDTH 334 0
DWIDTH 8 0
BBX 8 16 0 -3
BITMAP
00
00
00
00
00
00
00
00
00
00
00
00
00
00
00
00
ENDCHAR
STARTCHAR c2361
ENCODING 9057
SWIDTH 334 0
DWIDTH 8 0
BBX 8 11 0 -1
BITMAP
ff
ff
3e
7e
46
7e
3e
3e
7e
66
02
ENDCHAR
STARTCHAR c2362
ENCODING 9058
SWIDTH 334 0
DWIDTH 8 0
BBX 8 12 0 -3
BITMAP
ff
ff
7e
c6
7e
3e
3e
7e
46
3e
1e
02
ENDCHAR
STARTCHAR c2363
ENCODING 9059
SWIDTH 334 0
DWIDTH 8 0
BBX 8 16 0 -3
BITMAP
00
00
00
00
00
00
00
00
00
00
00
00
00
00
00
00
ENDCHAR
STARTCHAR c2364
ENCODING 9060
SWIDTH 334 0
DWIDTH 8 0
BBX 8 16 0 -3
BITMAP
00
00
00
00
00
00
00
00
00
00
00
00
00
00
00
00
ENDCHAR
STARTCHAR c2365
ENCODING 9061
SWIDTH 334 0
DWIDTH 8 0
BBX 8 16 0 -3
BITMAP
00
00
00
00
00
00
00
00
00
00
00
00
00
00
00
00
ENDCHAR
STARTCHAR c2366
ENCODING 9062
SWIDTH 334 0
DWIDTH 8 0
BBX 8 16 0 -3
BITMAP
00
00
00
00
00
00
00
00
00
00
00
00
00
00
00
00
ENDCHAR
STARTCHAR c2367
ENCODING 9063
SWIDTH 334 0
DWIDTH 8 0
BBX 8 16 0 -3
BITMAP
00
00
00
00
00
00
00
00
00
00
00
00
00
00
00
00
ENDCHAR
STARTCHAR c2368
ENCODING 9064
SWIDTH 334 0
DWIDTH 8 0
BBX 8 16 0 -3
BITMAP
00
00
00
00
00
00
00
00
00
00
00
00
00
00
00
00
ENDCHAR
STARTCHAR c2369
ENCODING 9065
SWIDTH 334 0
DWIDTH 8 0
BBX 8 16 0 -3
BITMAP
00
00
00
00
00
00
00
00
00
00
00
00
00
00
00
00
ENDCHAR
STARTCHAR c236a
ENCODING 9066
SWIDTH 334 0
DWIDTH 8 0
BBX 8 13 0 -3
BITMAP
ff
ff
dc
cc
5c
7c
60
c2
7e
fc
4c
7c
0c
ENDCHAR
STARTCHAR c236b
ENCODING 9067
SWIDTH 334 0
DWIDTH 8 0
BBX 8 10 0 0
BITMAP
ff
ff
fc
dc
5c
3c
70
c0
7f
3c
ENDCHAR
STARTCHAR c236c
ENCODING 9068
SWIDTH 334 0
DWIDTH 8 0
BBX 8 10 0 0
BITMAP
ff
ff
fc
dc
5c
7c
e2
43
7f
3e
ENDCHAR
STARTCHAR c236d
ENCODING 9069
SWIDTH 334 0
DWIDTH 8 0
BBX 8 16 0 -3
BITMAP
00
00
00
00
00
00
00
00
00
00
00
00
00
00
00
00
ENDCHAR
STARTCHAR c236e
ENCODING 9070
SWIDTH 334 0
DWIDTH 8 0
BBX 8 16 0 -3
BITMAP
00
00
00
00
00
00
00
00
00
00
00
00
00
00
00
00
ENDCHAR
STARTCHAR c236f
ENCODING 9071
SWIDTH 334 0
DWIDTH 8 0
BBX 8 16 0 -3
BITMAP
00
00
00
00
00
00
00
00
00
00
00
00
00
00
00
00
ENDCHAR
STARTCHAR c2370
ENCODING 9072
SWIDTH 334 0
DWIDTH 8 0
BBX 8 16 0 -3
BITMAP
00
00
00
00
00
00
00
00
00
00
00
00
00
00
00
00
ENDCHAR
STARTCHAR c2371
ENCODING 9073
SWIDTH 334 0
DWIDTH 8 0
BBX 8 16 0 -3
BITMAP
00
00
00
00
00
00
00
00
00
00
00
00
00
00
00
00
ENDCHAR
STARTCHAR c2372
ENCODING 9074
SWIDTH 334 0
DWIDTH 8 0
BBX 8 16 0 -3
BITMAP
00
00
00
00
00
00
00
00
00
00
00
00
00
00
00
00
ENDCHAR
STARTCHAR c2373
ENCODING 9075
SWIDTH 334 0
DWIDTH 8 0
BBX 8 16 0 -3
BITMAP
00
00
00
00
00
00
00
00
00
00
00
00
00
00
00
00
ENDCHAR
STARTCHAR c2374
ENCODING 9076
SWIDTH 334 0
DWIDTH 8 0
BBX 8 16 0 -3
BITMAP
00
00
00
00
00
00
00
00
00
00
00
00
00
00
00
00
ENDCHAR
STARTCHAR c2375
ENCODING 9077
SWIDTH 334 0
DWIDTH 8 0
BBX 8 16 0 -3
BITMAP
00
00
00
00
00
00
00
00
00
00
00
00
00
00
00
00
ENDCHAR
STARTCHAR c2376
ENCODING 9078
SWIDTH 334 0
DWIDTH 8 0
BBX 8 16 0 -3
BITMAP
00
00
00
00
00
00
00
00
00
00
00
00
00
00
00
00
ENDCHAR
STARTCHAR c2377
ENCODING 9079
SWIDTH 334 0
DWIDTH 8 0
BBX 8 16 0 -3
BITMAP
00
00
00
00
00
00
00
00
00
00
00
00
00
00
00
00
ENDCHAR
STARTCHAR c2378
ENCODING 9080
SWIDTH 334 0
DWIDTH 8 0
BBX 8 16 0 -3
BITMAP
00
00
00
00
00
00
00
00
00
00
00
00
00
00
00
00
ENDCHAR
STARTCHAR c2379
ENCODING 9081
SWIDTH 334 0
DWIDTH 8 0
BBX 8 16 0 -3
BITMAP
00
00
00
00
00
00
00
00
00
00
00
00
00
00
00
00
ENDCHAR
STARTCHAR c237e
ENCODING 9082
SWIDTH 334 0
DWIDTH 8 0
BBX 8 16 0 -3
BITMAP
00
00
00
00
00
00
00
00
00
00
00
00
00
00
00
00
ENDCHAR
STARTCHAR c2421
ENCODING 9249
SWIDTH 334 0
DWIDTH 8 0
BBX 8 16 0 -3
BITMAP
00
00
00
00
00
00
00
00
00
00
00
00
00
00
00
00
ENDCHAR
STARTCHAR c2422
ENCODING 9250
SWIDTH 334 0
DWIDTH 8 0
BBX 8 16 0 -3
BITMAP
00
00
00
00
00
00
00
00
00
00
00
00
00
00
00
00
ENDCHAR
STARTCHAR c2423
ENCODING 9251
SWIDTH 334 0
DWIDTH 8 0
BBX 8 16 0 -3
BITMAP
00
00
00
00
00
00
00
00
00
00
00
00
00
00
00
00
ENDCHAR
STARTCHAR c2424
ENCODING 9252
SWIDTH 334 0
DWIDTH 8 0
BBX 8 16 0 -3
BITMAP
00
00
00
00
00
00
00
00
00
00
00
00
00
00
00
00
ENDCHAR
STARTCHAR c2425
ENCODING 9253
SWIDTH 334 0
DWIDTH 8 0
BBX 8 16 0 -3
BITMAP
00
00
00
00
00
00
00
00
00
00
00
00
00
00
00
00
ENDCHAR
STARTCHAR c2426
ENCODING 9254
SWIDTH 334 0
DWIDTH 8 0
BBX 8 16 0 -3
BITMAP
00
00
00
00
00
00
00
00
00
00
00
00
00
00
00
00
ENDCHAR
STARTCHAR c2427
ENCODING 9255
SWIDTH 334 0
DWIDTH 8 0
BBX 8 16 0 -3
BITMAP
00
00
00
00
00
00
00
00
00
00
00
00
00
00
00
00
ENDCHAR
STARTCHAR c2428
ENCODING 9256
SWIDTH 334 0
DWIDTH 8 0
BBX 8 16 0 -3
BITMAP
00
00
00
00
00
00
00
00
00
00
00
00
00
00
00
00
ENDCHAR
STARTCHAR c2429
ENCODING 9257
SWIDTH 334 0
DWIDTH 8 0
BBX 8 16 0 -3
BITMAP
00
00
00
00
00
00
00
00
00
00
00
00
00
00
00
00
ENDCHAR
STARTCHAR c242a
ENCODING 9258
SWIDTH 334 0
DWIDTH 8 0
BBX 8 16 0 -3
BITMAP
00
00
00
00
00
00
00
00
00
00
00
00
00
00
00
00
ENDCHAR
STARTCHAR c242b
ENCODING 9259
SWIDTH 334 0
DWIDTH 8 0
BBX 8 16 0 -3
BITMAP
00
00
00
00
00
00
00
00
00
00
00
00
00
00
00
00
ENDCHAR
STARTCHAR c242c
ENCODING 9260
SWIDTH 334 0
DWIDTH 8 0
BBX 8 16 0 -3
BITMAP
00
00
00
00
00
00
00
00
00
00
00
00
00
00
00
00
ENDCHAR
STARTCHAR c242d
ENCODING 9261
SWIDTH 334 0
DWIDTH 8 0
BBX 8 16 0 -3
BITMAP
00
00
00
00
00
00
00
00
00
00
00
00
00
00
00
00
ENDCHAR
STARTCHAR c242e
ENCODING 9262
SWIDTH 334 0
DWIDTH 8 0
BBX 8 16 0 -3
BITMAP
00
00
00
00
00
00
00
00
00
00
00
00
00
00
00
00
ENDCHAR
STARTCHAR c242f
ENCODING 9263
SWIDTH 334 0
DWIDTH 8 0
BBX 8 16 0 -3
BITMAP
00
00
00
00
00
00
00
00
00
00
00
00
00
00
00
00
ENDCHAR
STARTCHAR c2430
ENCODING 9264
SWIDTH 334 0
DWIDTH 8 0
BBX 8 16 0 -3
BITMAP
00
00
00
00
00
00
00
00
00
00
00
00
00
00
00
00
ENDCHAR
STARTCHAR c2431
ENCODING 9265
SWIDTH 334 0
DWIDTH 8 0
BBX 8 16 0 -3
BITMAP
00
00
00
00
00
00
00
00
00
00
00
00
00
00
00
00
ENDCHAR
STARTCHAR c2432
ENCODING 9266
SWIDTH 334 0
DWIDTH 8 0
BBX 8 16 0 -3
BITMAP
00
00
00
00
00
00
00
00
00
00
00
00
00
00
00
00
ENDCHAR
STARTCHAR c2433
ENCODING 9267
SWIDTH 334 0
DWIDTH 8 0
BBX 8 16 0 -3
BITMAP
00
00
00
00
00
00
00
00
00
00
00
00
00
00
00
00
ENDCHAR
STARTCHAR c2434
ENCODING 9268
SWIDTH 334 0
DWIDTH 8 0
BBX 8 16 0 -3
BITMAP
00
00
00
00
00
00
00
00
00
00
00
00
00
00
00
00
ENDCHAR
STARTCHAR c2435
ENCODING 9269
SWIDTH 334 0
DWIDTH 8 0
BBX 8 16 0 -3
BITMAP
00
00
00
00
00
00
00
00
00
00
00
00
00
00
00
00
ENDCHAR
STARTCHAR c2436
ENCODING 9270
SWIDTH 334 0
DWIDTH 8 0
BBX 8 16 0 -3
BITMAP
00
00
00
00
00
00
00
00
00
00
00
00
00
00
00
00
ENDCHAR
STARTCHAR c2437
ENCODING 9271
SWIDTH 334 0
DWIDTH 8 0
BBX 8 16 0 -3
BITMAP
00
00
00
00
00
00
00
00
00
00
00
00
00
00
00
00
ENDCHAR
STARTCHAR c2438
ENCODING 9272
SWIDTH 334 0
DWIDTH 8 0
BBX 8 16 0 -3
BITMAP
00
00
00
00
00
00
00
00
00
00
00
00
00
00
00
00
ENDCHAR
STARTCHAR c2439
ENCODING 9273
SWIDTH 334 0
DWIDTH 8 0
BBX 8 16 0 -3
BITMAP
00
00
00
00
00
00
00
00
00
00
00
00
00
00
00
00
ENDCHAR
STARTCHAR c243a
ENCODING 9274
SWIDTH 334 0
DWIDTH 8 0
BBX 8 16 0 -3
BITMAP
00
00
00
00
00
00
00
00
00
00
00
00
00
00
00
00
ENDCHAR
STARTCHAR c243b
ENCODING 9275
SWIDTH 334 0
DWIDTH 8 0
BBX 8 16 0 -3
BITMAP
00
00
00
00
00
00
00
00
00
00
00
00
00
00
00
00
ENDCHAR
STARTCHAR c243c
ENCODING 9276
SWIDTH 334 0
DWIDTH 8 0
BBX 8 16 0 -3
BITMAP
00
00
00
00
00
00
00
00
00
00
00
00
00
00
00
00
ENDCHAR
STARTCHAR c243d
ENCODING 9277
SWIDTH 334 0
DWIDTH 8 0
BBX 8 16 0 -3
BITMAP
00
00
00
00
00
00
00
00
00
00
00
00
00
00
00
00
ENDCHAR
STARTCHAR c243e
ENCODING 9278
SWIDTH 334 0
DWIDTH 8 0
BBX 8 16 0 -3
BITMAP
00
00
00
00
00
00
00
00
00
00
00
00
00
00
00
00
ENDCHAR
STARTCHAR c243f
ENCODING 9279
SWIDTH 334 0
DWIDTH 8 0
BBX 8 16 0 -3
BITMAP
00
00
00
00
00
00
00
00
00
00
00
00
00
00
00
00
ENDCHAR
STARTCHAR c2440
ENCODING 9280
SWIDTH 334 0
DWIDTH 8 0
BBX 8 16 0 -3
BITMAP
00
00
00
00
00
00
00
00
00
00
00
00
00
00
00
00
ENDCHAR
STARTCHAR c2441
ENCODING 9281
SWIDTH 334 0
DWIDTH 8 0
BBX 8 10 0 0
BITMAP
ff
ff
03
ff
33
ff
7f
63
7f
3f
ENDCHAR
STARTCHAR c2442
ENCODING 9282
SWIDTH 334 0
DWIDTH 8 0
BBX 8 16 0 -3
BITMAP
00
00
00
00
00
00
00
00
00
00
00
00
00
00
00
00
ENDCHAR
STARTCHAR c2443
ENCODING 9283
SWIDTH 334 0
DWIDTH 8 0
BBX 8 16 0 -3
BITMAP
00
00
00
00
00
00
00
00
00
00
00
00
00
00
00
00
ENDCHAR
STARTCHAR c2444
ENCODING 9284
SWIDTH 334 0
DWIDTH 8 0
BBX 8 16 0 -3
BITMAP
00
00
00
00
00
00
00
00
00
00
00
00
00
00
00
00
ENDCHAR
STARTCHAR c2445
ENCODING 9285
SWIDTH 334 0
DWIDTH 8 0
BBX 8 11 0 -1
BITMAP
ff
ff
03
7b
6f
23
13
5b
7b
70
08
ENDCHAR
STARTCHAR c2446
ENCODING 9286
SWIDTH 334 0
DWIDTH 8 0
BBX 8 16 0 -3
BITMAP
00
00
00
00
00
00
00
00
00
00
00
00
00
00
00
00
ENDCHAR
STARTCHAR c2447
ENCODING 9287
SWIDTH 334 0
DWIDTH 8 0
BBX 8 16 0 -3
BITMAP
00
00
00
00
00
00
00
00
00
00
00
00
00
00
00
00
ENDCHAR
STARTCHAR c2448
ENCODING 9288
SWIDTH 334 0
DWIDTH 8 0
BBX 8 13 0 -3
BITMAP
ff
ff
3c
7c
c0
7e
3e
3c
7e
7f
3f
0f
0c
ENDCHAR
STARTCHAR c2449
ENCODING 9289
SWIDTH 334 0
DWIDTH 8 0
BBX 8 13 0 -3
BITMAP
ff
ff
3c
7c
c0
7e
3e
0c
3c
7c
40
7f
3c
ENDCHAR
STARTCHAR c244a
ENCODING 9290
SWIDTH 334 0
DWIDTH 8 0
BBX 8 13 0 -3
BITMAP
ff
ff
3c
7c
c0
7e
3e
0c
3c
7e
43
7f
3e
ENDCHAR
STARTCHAR c244b
ENCODING 9291
SWIDTH 334 0
DWIDTH 8 0
BBX 8 16 0 -3
BITMAP
00
00
00
00
00
00
00
00
00
00
00
00
00
00
00
00
ENDCHAR
STARTCHAR c244c
ENCODING 9292
SWIDTH 334 0
DWIDTH 8 0
BBX 8 16 0 -3
BITMAP
00
00
00
00
00
00
00
00
00
00
00
00
00
00
00
00
ENDCHAR
STARTCHAR c244d
ENCODING 9293
SWIDTH 334 0
DWIDTH 8 0
BBX 8 16 0 -3
BITMAP
00
00
00
00
00
00
00
00
00
00
00
00
00
00
00
00
ENDCHAR
STARTCHAR c244e
ENCODING 9294
SWIDTH 334 0
DWIDTH 8 0
BBX 8 13 0 -3
BITMAP
ff
ff
3e
3c
3c
ce
46
3e
66
36
6e
3e
36
ENDCHAR
STARTCHAR c244f
ENCODING 9295
SWIDTH 334 0
DWIDTH 8 0
BBX 8 16 0 -3
BITMAP
00
00
00
00
00
00
00
00
00
00
00
00
00
00
00
00
ENDCHAR
STARTCHAR c2450
ENCODING 9296
SWIDTH 334 0
DWIDTH 8 0
BBX 8 13 0 -3
BITMAP
ff
ff
3e
3c
3c
ce
46
3e
36
36
36
36
06
ENDCHAR
STARTCHAR c2451
ENCODING 9297
SWIDTH 334 0
DWIDTH 8 0
BBX 8 12 0 -3
BITMAP
ff
ff
3e
3c
1c
ce
7e
7e
66
76
7e
3e
ENDCHAR
STARTCHAR c2452
ENCODING 9298
SWIDTH 334 0
DWIDTH 8 0
BBX 8 13 0 -3
BITMAP
ff
ff
3c
3c
38
ce
4e
3c
3c
30
0c
7e
7e
ENDCHAR
STARTCHAR c2453
ENCODING 9299
SWIDTH 334 0
DWIDTH 8 0
BBX 8 16 0 -3
BITMAP
00
00
00
00
00
00
00
00
00
00
00
00
00
00
00
00
ENDCHAR
STARTCHAR c2454
ENCODING 9300
SWIDTH 334 0
DWIDTH 8 0
BBX 8 16 0 -3
BITMAP
00
00
00
00
00
00
00
00
00
00
00
00
00
00
00
00
ENDCHAR
STARTCHAR c2455
ENCODING 9301
SWIDTH 334 0
DWIDTH 8 0
BBX 8 16 0 -3
BITMAP
00
00
00
00
00
00
00
00
00
00
00
00
00
00
00
00
ENDCHAR
STARTCHAR c2456
ENCODING 9302
SWIDTH 334 0
DWIDTH 8 0
BBX 8 16 0 -3
BITMAP
00
00
00
00
00
00
00
00
00
00
00
00
00
00
00
00
ENDCHAR
STARTCHAR c2457
ENCODING 9303
SWIDTH 334 0
DWIDTH 8 0
BBX 8 16 0 -3
BITMAP
00
00
00
00
00
00
00
00
00
00
00
00
00
00
00
00
ENDCHAR
STARTCHAR c2458
ENCODING 9304
SWIDTH 334 0
DWIDTH 8 0
BBX 8 16 0 -3
BITMAP
00
00
00
00
00
00
00
00
00
00
00
00
00
00
00
00
ENDCHAR
STARTCHAR c2459
ENCODING 9305
SWIDTH 334 0
DWIDTH 8 0
BBX 8 16 0 -3
BITMAP
00
00
00
00
00
00
00
00
00
00
00
00
00
00
00
00
ENDCHAR
STARTCHAR c245a
ENCODING 9306
SWIDTH 334 0
DWIDTH 8 0
BBX 8 16 0 -3
BITMAP
00
00
00
00
00
00
00
00
00
00
00
00
00
00
00
00
ENDCHAR
STARTCHAR c245b
ENCODING 9307
SWIDTH 334 0
DWIDTH 8 0
BBX 8 16 0 -3
BITMAP
00
00
00
00
00
00
00
00
00
00
00
00
00
00
00
00
ENDCHAR
STARTCHAR c245c
ENCODING 9308
SWIDTH 334 0
DWIDTH 8 0
BBX 8 16 0 -3
BITMAP
00
00
00
00
00
00
00
00
00
00
00
00
00
00
00
00
ENDCHAR
STARTCHAR c245d
ENCODING 9309
SWIDTH 334 0
DWIDTH 8 0
BBX 8 16 0 -3
BITMAP
00
00
00
00
00
00
00
00
00
00
00
00
00
00
00
00
ENDCHAR
STARTCHAR c245e
ENCODING 9310
SWIDTH 334 0
DWIDTH 8 0
BBX 8 16 0 -3
BITMAP
00
00
00
00
00
00
00
00
00
00
00
00
00
00
00
00
ENDCHAR
STARTCHAR c245f
ENCODING 9311
SWIDTH 334 0
DWIDTH 8 0
BBX 8 16 0 -3
BITMAP
00
00
00
00
00
00
00
00
00
00
00
00
00
00
00
00
ENDCHAR
STARTCHAR c2460
ENCODING 9312
SWIDTH 334 0
DWIDTH 8 0
BBX 8 16 0 -3
BITMAP
00
00
00
00
00
00
00
00
00
00
00
00
00
00
00
00
ENDCHAR
STARTCHAR c2461
ENCODING 9313
SWIDTH 334 0
DWIDTH 8 0
BBX 8 16 0 -3
BITMAP
00
00
00
00
00
00
00
00
00
00
00
00
00
00
00
00
ENDCHAR
STARTCHAR c2462
ENCODING 9314
SWIDTH 334 0
DWIDTH 8 0
BBX 8 16 0 -3
BITMAP
00
00
00
00
00
00
00
00
00
00
00
00
00
00
00
00
ENDCHAR
STARTCHAR c2463
ENCODING 9315
SWIDTH 334 0
DWIDTH 8 0
BBX 8 16 0 -3
BITMAP
00
00
00
00
00
00
00
00
00
00
00
00
00
00
00
00
ENDCHAR
STARTCHAR c2464
ENCODING 9316
SWIDTH 334 0
DWIDTH 8 0
BBX 8 16 0 -3
BITMAP
00
00
00
00
00
00
00
00
00
00
00
00
00
00
00
00
ENDCHAR
STARTCHAR c2465
ENCODING 9317
SWIDTH 334 0
DWIDTH 8 0
BBX 8 16 0 -3
BITMAP
00
00
00
00
00
00
00
00
00
00
00
00
00
00
00
00
ENDCHAR
STARTCHAR c2466
ENCODING 9318
SWIDTH 334 0
DWIDTH 8 0
BBX 8 16 0 -3
BITMAP
00
00
00
00
00
00
00
00
00
00
00
00
00
00
00
00
ENDCHAR
STARTCHAR c2467
ENCODING 9319
SWIDTH 334 0
DWIDTH 8 0
BBX 8 16 0 -3
BITMAP
00
00
00
00
00
00
00
00
00
00
00
00
00
00
00
00
ENDCHAR
STARTCHAR c2468
ENCODING 9320
SWIDTH 334 0
DWIDTH 8 0
BBX 8 13 0 -3
BITMAP
ff
ff
3e
7c
c0
4e
7e
7e
6c
ec
5c
3c
34
ENDCHAR
STARTCHAR c2469
ENCODING 9321
SWIDTH 334 0
DWIDTH 8 0
BBX 8 13 0 -3
BITMAP
ff
ff
3e
7c
70
fe
46
76
c6
7e
3e
3e
30
ENDCHAR
STARTCHAR c246a
ENCODING 9322
SWIDTH 334 0
DWIDTH 8 0
BBX 8 12 0 -3
BITMAP
ff
ff
7c
fc
58
7c
e0
44
7e
fe
7e
3c
ENDCHAR
STARTCHAR c246b
ENCODING 9323
SWIDTH 334 0
DWIDTH 8 0
BBX 8 16 0 -3
BITMAP
00
00
00
00
00
00
00
00
00
00
00
00
00
00
00
00
ENDCHAR
STARTCHAR c246c
ENCODING 9324
SWIDTH 334 0
DWIDTH 8 0
BBX 8 13 0 -3
BITMAP
ff
ff
3e
7c
c0
4e
7e
7e
6c
ec
4c
0c
04
ENDCHAR
STARTCHAR c246d
ENCODING 9325
SWIDTH 334 0
DWIDTH 8 0
BBX 8 12 0 -3
BITMAP
ff
ff
3e
7c
7c
fe
66
76
ce
7e
3e
02
ENDCHAR
STARTCHAR c246e
ENCODING 9326
SWIDTH 334 0
DWIDTH 8 0
BBX 8 12 0 -2
BITMAP
ff
ff
7c
fc
40
7c
7c
40
3e
3c
06
02
ENDCHAR
STARTCHAR c246f
ENCODING 9327
SWIDTH 334 0
DWIDTH 8 0
BBX 8 16 0 -3
BITMAP
00
00
00
00
00
00
00
00
00
00
00
00
00
00
00
00
ENDCHAR
STARTCHAR c2470
ENCODING 9328
SWIDTH 334 0
DWIDTH 8 0
BBX 8 11 0 -1
BITMAP
ff
ff
3e
7c
60
3e
1e
3e
7e
36
02
ENDCHAR
STARTCHAR c2471
ENCODING 9329
SWIDTH 334 0
DWIDTH 8 0
BBX 8 12 0 -2
BITMAP
ff
ff
7c
fc
c0
4c
3c
7c
fe
7e
3b
01
ENDCHAR
STARTCHAR c2472
ENCODING 9330
SWIDTH 334 0
DWIDTH 8 0
BBX 8 10 0 0
BITMAP
ff
ff
3f
3e
30
de
6f
7f
ff
73
ENDCHAR
STARTCHAR c2473
ENCODING 9331
SWIDTH 334 0
DWIDTH 8 0
BBX 8 16 0 -3
BITMAP
00
00
00
00
00
00
00
00
00
00
00
00
00
00
00
00
ENDCHAR
STARTCHAR c2474
ENCODING 9332
SWIDTH 334 0
DWIDTH 8 0
BBX 8 16 0 -3
BITMAP
00
00
00
00
00
00
00
00
00
00
00
00
00
00
00
00
ENDCHAR
STARTCHAR c2475
ENCODING 9333
SWIDTH 334 0
DWIDTH 8 0
BBX 8 12 0 -2
BITMAP
ff
ff
7c
fc
c0
4c
3c
7c
ce
7e
3b
01
ENDCHAR
STARTCHAR c2476
ENCODING 9334
SWIDTH 334 0
DWIDTH 8 0
BBX 8 10 0 -1
BITMAP
4f
c7
73
7b
67
3f
1b
3f
7f
30
ENDCHAR
STARTCHAR c2477
ENCODING 9335
SWIDTH 334 0
DWIDTH 8 0
BBX 8 16 0 -3
BITMAP
00
00
00
00
00
00
00
00
00
00
00
00
00
00
00
00
ENDCHAR
STARTCHAR c2478
ENCODING 9336
SWIDTH 334 0
DWIDTH 8 0
BBX 8 10 0 0
BITMAP
ff
ff
46
66
3e
7e
e6
46
66
32
ENDCHAR
STARTCHAR c2479
ENCODING 9337
SWIDTH 334 0
DWIDTH 8 0
BBX 8 10 0 0
BITMAP
ff
ff
66
66
3e
0e
06
7e
7e
22
ENDCHAR
STARTCHAR c247a
ENCODING 9338
SWIDTH 334 0
DWIDTH 8 0
BBX 8 16 0 -3
BITMAP
00
00
00
00
00
00
00
00
00
00
00
00
00
00
00
00
ENDCHAR
STARTCHAR c247b
ENCODING 9339
SWIDTH 334 0
DWIDTH 8 0
BBX 8 16 0 -3
BITMAP
00
00
00
00
00
00
00
00
00
00
00
00
00
00
00
00
ENDCHAR
STARTCHAR c247c
ENCODING 9340
SWIDTH 334 0
DWIDTH 8 0
BBX 8 16 0 -3
BITMAP
00
00
00
00
00
00
00
00
00
00
00
00
00
00
00
00
ENDCHAR
STARTCHAR c247d
ENCODING 9341
SWIDTH 334 0
DWIDTH 8 0
BBX 8 16 0 -3
BITMAP
00
00
00
00
00
00
00
00
00
00
00
00
00
00
00
00
ENDCHAR
STARTCHAR c247e
ENCODING 9342
SWIDTH 334 0
DWIDTH 8 0
BBX 8 16 0 -3
BITMAP
00
00
00
00
00
00
00
00
00
00
00
00
00
00
00
00
ENDCHAR
ENDFONT
